<svg width="59" height="59" viewBox="0 0 59 59" fill="none" xmlns="http://www.w3.org/2000/svg">
<g id="vscode-icons:file-type-html">
<path id="Vector" d="M10.8819 50.152L6.73901 3.68762H52.2612L48.1128 50.1446L29.4725 55.3126L10.8819 50.152Z" fill="#E44F26"/>
<path id="Vector_2" d="M29.5 51.3633L44.5634 47.1872L48.1071 7.48758H29.5V51.3633Z" fill="#F1662A"/>
<path id="Vector_3" d="M29.5 24.7193H21.9591L21.4391 18.8838H29.5V13.1848H15.2109L15.3474 14.7151L16.7468 30.4183H29.5V24.7193ZM29.5 39.5191L29.4742 39.5264L23.128 37.8136L22.7224 33.2688H17.0012L17.7996 42.2146L29.4742 45.4559L29.5 45.4486V39.5191Z" fill="#EBEBEB"/>
<path id="Vector_4" d="M29.4797 24.7193V30.4183H36.497L35.837 37.8099L29.4797 39.5246V45.4541L41.1636 42.2146L41.2484 41.2522L42.587 26.2496L42.7271 24.7193H29.4797ZM29.4797 13.1848V18.8838H43.2452L43.3595 17.6043L43.6195 14.7151L43.7559 13.1848H29.4797Z" fill="white"/>
</g>
</svg>
